<svg xmlns="http://www.w3.org/2000/svg" width="50" height="61.391" viewBox="0 0 50 61.391">
  <g id="fat" transform="translate(-47.5)">
    <path id="Path_144" data-name="Path 144" d="M190.2,260.962a1.2,1.2,0,0,0,1.117-.762l.628-1.6h4.237l.628,1.6a1.2,1.2,0,1,0,2.233-.875l-.921-2.351c-.007-.018-.013-.036-.021-.053l-2.921-7.453a1.2,1.2,0,0,0-2.233,0l-3.863,9.857a1.2,1.2,0,0,0,1.116,1.637Zm3.863-7.77,1.179,3.008h-2.358Z" transform="translate(-124.533 -218.887)" fill="#39ddc9"/>
    <path id="Path_145" data-name="Path 145" d="M120.885,251.1a1.2,1.2,0,1,0,0-2.4h-4.441a1.2,1.2,0,0,0-1.2,1.2v9.857a1.2,1.2,0,1,0,2.4,0V255.72h3.242a1.2,1.2,0,1,0,0-2.4h-3.242V251.1h3.242Z" transform="translate(-59.622 -218.881)" fill="#39ddc9"/>
    <path id="Path_146" data-name="Path 146" d="M284.736,260.956a1.2,1.2,0,0,0,1.2-1.2V251.1h2.273a1.2,1.2,0,0,0,0-2.4h-6.923a1.2,1.2,0,0,0,0,2.4h2.252v8.658A1.2,1.2,0,0,0,284.736,260.956Z" transform="translate(-204.698 -218.881)" fill="#39ddc9"/>
    <path id="Path_147" data-name="Path 147" d="M106.406,137.49a1.2,1.2,0,0,0,1.2-1.2v0a1.2,1.2,0,1,0-1.2,1.2Z" transform="translate(-50.788 -118.892)" fill="#39ddc9"/>
    <path id="Path_148" data-name="Path 148" d="M89.284,2.107C88.56,1.2,87.422,0,85.9,0s-2.658,1.2-3.381,2.1A54.866,54.866,0,0,0,78.457,7.8c-1.132-1.523-2.2-2.881-3.127-4.039C73.275,1.194,71.423,0,69.5,0s-3.774,1.194-5.828,3.759c-2.449,3.055-4.419,5.722-6.2,8.391a1.2,1.2,0,0,0,1.995,1.331c1.741-2.61,3.671-5.222,6.076-8.222C67.086,3.334,68.381,2.4,69.5,2.4s2.415.936,3.957,2.861C80.175,13.639,89.1,26.337,89.1,39.795c0,13.19-10.162,19.2-19.6,19.2s-19.6-6.008-19.6-19.2a40.421,40.421,0,0,1,4.308-17.14,1.2,1.2,0,0,0-2.168-1.025A42.776,42.776,0,0,0,47.5,39.795c0,6.658,2.39,12.26,6.912,16.2A23.8,23.8,0,0,0,84.59,56c4.522-3.941,6.912-9.544,6.912-16.2a36.3,36.3,0,0,0-1.111-8.707,10.95,10.95,0,0,0,4.665-3.293A11.347,11.347,0,0,0,97.5,20.5c0-7.293-4.689-13.988-8.216-18.389Zm.465,26.661A55.269,55.269,0,0,0,85.8,19.3,83.7,83.7,0,0,0,79.99,9.912a50.212,50.212,0,0,1,4.4-6.306C85.231,2.557,85.7,2.4,85.9,2.4s.67.157,1.511,1.206C90.713,7.725,95.1,13.958,95.1,20.5A8.449,8.449,0,0,1,89.749,28.768Z" transform="translate(0 0)" fill="#39ddc9"/>
  </g>
</svg>
