<svg xmlns="http://www.w3.org/2000/svg" width="60.186" height="60" viewBox="0 0 60.186 60">
  <g id="fried-egg" transform="translate(0 -0.5)">
    <path id="Path_157" data-name="Path 157" d="M236.269,211.567a8.148,8.148,0,0,0-3.234,6.527.883.883,0,0,0,1.766,0,6.394,6.394,0,0,1,2.539-5.123.883.883,0,1,0-1.071-1.4Zm0,0" transform="translate(-205.642 -186.096)" fill="#39ddc9"/>
    <path id="Path_158" data-name="Path 158" d="M159.8,121.607c-.611-.477-1.242-.969-1.843-1.492a.883.883,0,0,0-1.159,1.332c.637.554,1.287,1.062,1.916,1.552,3.49,2.724,6.5,5.077,6.5,14.235a22.226,22.226,0,0,1-3.321,11.53,15.045,15.045,0,0,1-9.081,6.93c-3.151.746-5.284,2.576-7.347,4.345-2.433,2.086-4.731,4.057-8.578,4.057-6.145,0-10.029-3.182-14.3-8.315a.883.883,0,0,0-1.357,1.131c3.606,4.33,8.089,8.951,15.661,8.951,4.5,0,7.158-2.279,9.728-4.483,1.991-1.707,3.871-3.319,6.6-3.967,8.938-2.116,13.761-11.976,13.761-20.179,0-10.02-3.652-12.871-7.184-15.627Zm0,0" transform="translate(-106.802 -105.362)" fill="#39ddc9"/>
    <path id="Path_159" data-name="Path 159" d="M11.806,45.518A15.674,15.674,0,0,0,7.35,42.067c-3-1.764-5.585-3.287-5.585-10.2A12.711,12.711,0,0,1,4.737,23.2a25.022,25.022,0,0,1,6.338-4.818,27.351,27.351,0,0,0,4.268-2.939A15.093,15.093,0,0,0,18.9,9.619c1.631-3.945,3.04-7.353,11.192-7.353,8.78,0,11.614,3.716,15.2,8.421.556.728,1.13,1.481,1.74,2.236a.883.883,0,0,0,1.373-1.111c-.594-.735-1.161-1.478-1.709-2.2C43.124,4.928,39.747.5,30.093.5c-4.147,0-7.17.873-9.243,2.67a14.305,14.305,0,0,0-3.581,5.774,13.532,13.532,0,0,1-3.114,5.192,26.153,26.153,0,0,1-3.992,2.733C5.635,19.6,0,23,0,31.872c0,7.919,3.281,9.85,6.455,11.717a14.075,14.075,0,0,1,3.995,3.061c.4.48.826,1,1.377,1.684A.883.883,0,1,0,13.2,47.226c-.558-.693-.989-1.22-1.4-1.708Zm0,0" fill="#39ddc9"/>
    <path id="Path_160" data-name="Path 160" d="M211.349,164.8a12.185,12.185,0,1,0,12.185,12.185A12.2,12.2,0,0,0,211.349,164.8Zm0,22.6a10.419,10.419,0,1,1,10.419-10.419A10.43,10.43,0,0,1,211.349,187.4Zm0,0" transform="translate(-175.752 -144.987)" fill="#39ddc9"/>
  </g>
</svg>
