<svg xmlns="http://www.w3.org/2000/svg" width="54.18" height="50" viewBox="0 0 54.18 50">
  <g id="grain" transform="translate(0 -0.249)">
    <path id="Path_134" data-name="Path 134" d="M30.659,36.926a2.677,2.677,0,0,0-2.648-3.05h-.466l-4.736-4.736a10.559,10.559,0,0,0-14.931,0L3.141,33.876H2.674a2.677,2.677,0,0,0-2.648,3.05A15.517,15.517,0,0,0,15.343,50.249,15.35,15.35,0,0,0,22.983,48.2a2.759,2.759,0,0,0,.279.339,2.712,2.712,0,0,0,1.93.8H50.064a2.729,2.729,0,0,0,1.93-4.658l-.175-.175.666-2.829a57.244,57.244,0,0,0,.292-24.741l-.878-4.17c.381-.144.764-.283,1.142-.438A1.846,1.846,0,0,0,54.05,9.944l-.9-2.254a3.183,3.183,0,0,0-2.967-2.012h-.876l-3.82-2.865a12.776,12.776,0,0,0-14.958-.285l-4.548,3.15h-.238A3.214,3.214,0,0,0,23,7.231L21.5,9.722a1.84,1.84,0,0,0,.91,2.661l.618.239c.112.044.225.08.336.122l-.882,4.191a57.063,57.063,0,0,0-1.208,10.552l1.819.038A55.235,55.235,0,0,1,24.257,17.31l.832-3.953a40.274,40.274,0,0,0,12.576,2.025,40.247,40.247,0,0,0,12.5-2.008l.828,3.936a55.413,55.413,0,0,1-.283,23.951l-.782,3.322a.91.91,0,0,0,.243.851l.533.533a.91.91,0,0,1-.641,1.553H25.193a.911.911,0,0,1-.644-.266c-.014-.014-.018-.033-.031-.047a15.429,15.429,0,0,0,6.141-10.281Zm.9-32.9a10.961,10.961,0,0,1,12.826.243L46.27,5.678h-17.1Zm-7.876,6.9-.627-.268,1.495-2.492a1.387,1.387,0,0,1,1.182-.67H50.181a1.373,1.373,0,0,1,1.281.868l.891,2.279a38.41,38.41,0,0,1-28.67.283Zm-14.52,19.5a8.749,8.749,0,0,1,12.358,0l3.45,3.45H10.795v-.91H8.975v.91H5.713Zm6.179,18A13.69,13.69,0,0,1,1.829,36.676a.849.849,0,0,1,.2-.688.837.837,0,0,1,.641-.293H28.011a.836.836,0,0,1,.637.293.851.851,0,0,1,.2.688A13.69,13.69,0,0,1,15.343,48.43Zm0,0" transform="translate(0 0)" fill="#39ddc9"/>
    <path id="Path_135" data-name="Path 135" d="M90.258,327.992H86.934v.831a6.656,6.656,0,0,0,6.648,6.648h3.324v-.831A6.656,6.656,0,0,0,90.258,327.992Zm3.324,5.817a5,5,0,0,1-4.917-4.155h1.593a4.994,4.994,0,0,1,4.917,4.155Zm0,0" transform="translate(-76.834 -289.378)" fill="#39ddc9"/>
    <path id="Path_136" data-name="Path 136" d="M278.934,173.289a5.817,5.817,0,0,0,4.986,5.751v2.56h1.662v-2.56a5.817,5.817,0,0,0,4.986-5.751.831.831,0,0,0-.831-.831c-.076,0-.151.008-.228.011a5.782,5.782,0,0,0,1.059-3.336.831.831,0,0,0-.831-.831c-.076,0-.151.008-.228.011a5.782,5.782,0,0,0,1.059-3.336.831.831,0,0,0-.831-.831,5.77,5.77,0,0,0-2.72.679,5.8,5.8,0,0,0-1.679-4.591.831.831,0,0,0-1.175,0,5.8,5.8,0,0,0-1.679,4.591,5.771,5.771,0,0,0-2.72-.679.831.831,0,0,0-.831.831,5.782,5.782,0,0,0,1.059,3.336c-.076,0-.151-.011-.228-.011a.831.831,0,0,0-.831.831,5.781,5.781,0,0,0,1.059,3.336c-.076,0-.151-.011-.228-.011A.831.831,0,0,0,278.934,173.289Zm1.768.937a4.171,4.171,0,0,1,3.112,3.112A4.171,4.171,0,0,1,280.7,174.226Zm3.112-1.044a4.171,4.171,0,0,1-3.112-3.112A4.171,4.171,0,0,1,283.814,173.183Zm4.986-3.112a4.171,4.171,0,0,1-3.112,3.112A4.171,4.171,0,0,1,288.8,170.071Zm-3.112,7.267a4.171,4.171,0,0,1,3.112-3.112A4.171,4.171,0,0,1,285.689,177.338Zm0-8.311a4.171,4.171,0,0,1,3.112-3.112A4.171,4.171,0,0,1,285.689,169.027Zm-.937-6.874a4.169,4.169,0,0,1,0,4.4A4.169,4.169,0,0,1,284.751,162.153Zm-.937,6.878a4.171,4.171,0,0,1-3.112-3.112,4.171,4.171,0,0,1,3.112,3.108Zm0,0" transform="translate(-246.376 -140.172)" fill="#39ddc9"/>
    <path id="Path_137" data-name="Path 137" d="M118.934,255.992H120.6v1.662h-1.662Zm0,0" transform="translate(-105.37 -226.569)" fill="#39ddc9"/>
    <path id="Path_138" data-name="Path 138" d="M158.934,271.992H160.6v1.662h-1.662Zm0,0" transform="translate(-140.808 -240.744)" fill="#39ddc9"/>
  </g>
</svg>
