<svg xmlns="http://www.w3.org/2000/svg" xmlns:xlink="http://www.w3.org/1999/xlink" width="732" height="40" viewBox="0 0 732 40">
  <defs>
    <clipPath id="clip-path">
      <rect id="Rectangle_8" data-name="Rectangle 8" width="732" height="40" rx="5" transform="translate(177 502)" fill="#fff" stroke="#707070" stroke-width="1"/>
    </clipPath>
  </defs>
  <g id="Mask_Group_2" data-name="Mask Group 2" transform="translate(-177 -502)" clip-path="url(#clip-path)">
    <g id="weight_1_" data-name="weight (1)" transform="translate(272 515.6)">
      <path id="Path_151" data-name="Path 151" d="M16.484.922A2.876,2.876,0,0,0,14.362,0H2.91a2.932,2.932,0,0,0-2.9,3.1l.507,7.469a.253.253,0,0,0,.5-.034L.516,3.07A2.422,2.422,0,0,1,2.91.506H14.362A2.422,2.422,0,0,1,16.756,3.07l-.777,11.453a2.407,2.407,0,0,1-2.394,2.238h-9.9a2.407,2.407,0,0,1-2.394-2.238l-.177-2.6a.253.253,0,0,0-.5.034l.177,2.6a2.914,2.914,0,0,0,2.9,2.71h9.9a2.914,2.914,0,0,0,2.9-2.71L17.26,3.1A2.879,2.879,0,0,0,16.484.922Z" transform="translate(0)" fill="#444"/>
      <path id="Path_152" data-name="Path 152" d="M17.2,8.282a.253.253,0,0,0,.253.253H18.46a.253.253,0,0,0,.253-.253,4.064,4.064,0,0,0-8.127,0,.253.253,0,0,0,.253.253h5.227a.253.253,0,0,0,0-.506H14.841l-1.1-1.962a.253.253,0,0,0-.441.247L14.26,8.03H11.1a3.542,3.542,0,0,1,.835-2.045l.347.347a.253.253,0,0,0,.358-.358l-.351-.351a3.561,3.561,0,0,1,1.163-.691l.126.471a.253.253,0,0,0,.489-.131L13.938,4.8a3.574,3.574,0,0,1,1.35-.014l-.125.465a.253.253,0,0,0,.489.131l.126-.47a3.557,3.557,0,0,1,1.172.662l-.335.335a.253.253,0,0,0,.358.358l.338-.338A3.544,3.544,0,0,1,18.2,8.03h-.75A.253.253,0,0,0,17.2,8.282Z" transform="translate(-6.013 -2.398)" fill="#444"/>
      <path id="Path_153" data-name="Path 153" d="M4.721,3.75a.894.894,0,1,0,.894.894A.895.895,0,0,0,4.721,3.75Zm0,1.282a.388.388,0,1,1,.388-.388A.388.388,0,0,1,4.721,5.032Z" transform="translate(-2.172 -2.131)" fill="#444"/>
      <path id="Path_154" data-name="Path 154" d="M32.924,5.537a.894.894,0,1,0-.894-.894A.895.895,0,0,0,32.924,5.537Zm0-1.282a.388.388,0,1,1-.388.388A.388.388,0,0,1,32.924,4.256Z" transform="translate(-18.201 -2.131)" fill="#444"/>
      <path id="Path_155" data-name="Path 155" d="M5.625,32.691a.894.894,0,1,0,.894-.894A.895.895,0,0,0,5.625,32.691Zm.894-.388a.388.388,0,1,1-.388.388A.388.388,0,0,1,6.518,32.3Z" transform="translate(-3.194 -18.071)" fill="#444"/>
      <path id="Path_156" data-name="Path 156" d="M30.234,32.691a.894.894,0,1,0,.894-.894A.895.895,0,0,0,30.234,32.691Zm.894-.388a.388.388,0,1,1-.388.388A.388.388,0,0,1,31.128,32.3Z" transform="translate(-17.18 -18.071)" fill="#444"/>
    </g>
  </g>
</svg>
