<svg xmlns="http://www.w3.org/2000/svg" xmlns:xlink="http://www.w3.org/1999/xlink" width="77" height="50" viewBox="0 0 77 50">
  <defs>
    <filter id="Rectangle_17" x="-75" y="-72" width="227" height="200" filterUnits="userSpaceOnUse">
      <feOffset dy="3" input="SourceAlpha"/>
      <feGaussianBlur stdDeviation="25" result="blur"/>
      <feFlood flood-color="#39ddc9" flood-opacity="0.169"/>
      <feComposite operator="in" in2="blur"/>
      <feComposite in="SourceGraphic"/>
    </filter>
    <clipPath id="clip-path">
      <g transform="matrix(1, 0, 0, 1, 0, 0)" filter="url(#Rectangle_17)">
        <rect id="Rectangle_17-2" data-name="Rectangle 17" width="77" height="50" rx="5" transform="translate(140 886.92)" fill="#39ddc9" stroke="#39ddc9" stroke-width="1"/>
      </g>
    </clipPath>
  </defs>
  <g id="p" transform="translate(-140 -886.916)" clip-path="url(#clip-path)">
    <g id="meat" transform="translate(152.519 886.965)">
      <g id="Group_2" data-name="Group 2" transform="translate(0 0)">
        <g id="Group_1" data-name="Group 1">
          <path id="Path_139" data-name="Path 139" d="M47.543,68.6A25.917,25.917,0,0,0,37.6,63c-8.128-2.724-17.294-3.018-20.858-3.018C7.512,59.979,0,69.146,0,80.414v8.658c0,11.268,7.512,20.435,16.746,20.435,4.258,0,7.455-1.628,10.841-3.351,3.5-1.782,7.121-3.625,12.212-3.625,6.707,0,12.163-6.659,12.163-14.843V79.03A14.063,14.063,0,0,0,47.543,68.6Zm-.855,21.172a.892.892,0,0,0,1.435.053,14.567,14.567,0,0,0,1.808-2.621v.48c0,6.819-4.546,12.366-10.134,12.366-5.5,0-9.308,1.94-12.993,3.816-3.192,1.625-6.208,3.16-10.059,3.16-7.8,0-14.195-7.437-14.685-16.8,2.85,6.325,8.363,10.622,14.685,10.622,4.258,0,7.455-1.628,10.841-3.351,3.5-1.782,7.121-3.625,12.212-3.625a10.059,10.059,0,0,0,1.136-.065,1.2,1.2,0,0,0,.916-1.349,1.094,1.094,0,0,0-1.105-1.117,8.39,8.39,0,0,1-.947.054c-5.5,0-9.308,1.94-12.993,3.816-3.192,1.625-6.208,3.16-10.059,3.16-8.114,0-14.716-8.056-14.716-17.958s6.6-17.958,14.716-17.958c3.481,0,12.43.285,20.32,2.93C45.6,68.247,49.932,72.837,49.932,79.03a13.829,13.829,0,0,1-3.2,9A1.438,1.438,0,0,0,46.689,89.777Z" transform="translate(0 -59.979)" fill="#39ddc9"/>
        </g>
      </g>
      <g id="Group_4" data-name="Group 4" transform="translate(43.919 29.877)">
        <g id="Group_3" data-name="Group 3">
          <path id="Path_140" data-name="Path 140" d="M465.077,318.87a.945.945,0,0,0-1.35-.593l-.024.014a1.377,1.377,0,0,0-.454,1.662,1.014,1.014,0,0,0,.909.685.864.864,0,0,0,.447-.127A1.371,1.371,0,0,0,465.077,318.87Z" transform="translate(-463.142 -318.159)" fill="#39ddc9"/>
        </g>
      </g>
      <g id="Group_6" data-name="Group 6" transform="translate(22.924 5.294)">
        <g id="Group_5" data-name="Group 5">
          <path id="Path_141" data-name="Path 141" d="M242.888,105.736l-.052-.005a1.1,1.1,0,0,0-1.092,1.136,1.188,1.188,0,0,0,.931,1.333l.052,0q.041,0,.082,0a1.122,1.122,0,0,0,1.011-1.14A1.188,1.188,0,0,0,242.888,105.736Z" transform="translate(-241.74 -105.727)" fill="#39ddc9"/>
        </g>
      </g>
      <g id="Group_8" data-name="Group 8" transform="translate(4.059 4.954)">
        <g id="Group_7" data-name="Group 7">
          <path id="Path_142" data-name="Path 142" d="M86.016,113.548c-1.007-2.428-3.246-4.526-6.657-6.236a37.6,37.6,0,0,0-7.824-2.748c-1.226-.293-2.511-.555-3.819-.779a1.069,1.069,0,0,0-1.146,1.055,1.22,1.22,0,0,0,.865,1.4c1.272.217,2.52.471,3.71.756,6.971,1.668,11.732,4.464,13.061,7.671a5.688,5.688,0,0,1,.415,2.218c0,4.087-2.725,7.412-6.074,7.412a26.013,26.013,0,0,0-10.053,2.065c-1.455.6-2.868,1.314-4.234,2.006-.9.458-1.838.931-2.766,1.36a13.829,13.829,0,0,1-6,1.545c-5.876,0-10.656-5.834-10.656-13s4.78-13,10.656-13c1.146,0,2.31.026,3.459.079l.585.029a1.119,1.119,0,0,0,1.059-1.183,1.168,1.168,0,0,0-.969-1.292l-.6-.03c-1.174-.053-2.363-.08-3.534-.08-7,0-12.686,6.945-12.686,15.481s5.691,15.481,12.686,15.481a15.418,15.418,0,0,0,6.718-1.705c.957-.443,1.906-.923,2.825-1.388,1.335-.676,2.715-1.375,4.1-1.947a24.34,24.34,0,0,1,9.405-1.935c4.468,0,8.1-4.436,8.1-9.889A8.551,8.551,0,0,0,86.016,113.548Z" transform="translate(-42.807 -102.787)" fill="#39ddc9"/>
        </g>
      </g>
      <g id="Group_10" data-name="Group 10" transform="translate(12.572 9.88)">
        <g id="Group_9" data-name="Group 9">
          <path id="Path_143" data-name="Path 143" d="M137.722,145.359a5.723,5.723,0,1,0,5.146,5.694A5.447,5.447,0,0,0,137.722,145.359Zm0,8.911a3.219,3.219,0,1,1,3.116-3.217A3.171,3.171,0,0,1,137.722,154.27Z" transform="translate(-132.577 -145.359)" fill="#39ddc9"/>
        </g>
      </g>
    </g>
  </g>
</svg>
