<svg xmlns="http://www.w3.org/2000/svg" width="13.281" height="14" viewBox="0 0 13.281 14">
  <g id="strong" transform="translate(-0.499 0.001)">
    <path id="Path_128" data-name="Path 128" d="M13.526,21.488A6.426,6.426,0,0,1,10,20.83a.228.228,0,0,0-.174-.022,11.087,11.087,0,0,1-4.47.226A9.232,9.232,0,0,1,2.1,19.253c-.114-.085-.223-.166-.324-.241a2.6,2.6,0,0,0-.555-.261c-.087-.033-.207-.079-.233-.1a.09.09,0,0,1-.035-.072v-.531c.011-.42,1.772-6.882,2.045-7.7a.177.177,0,0,1,.052-.038L6.539,8.719l1.127,1.467a.2.2,0,0,1-.012.252L6.541,11.686a.2.2,0,0,1-.272.027l-.45-.415a.23.23,0,0,0-.2-.052.24.24,0,0,0-.166.127,1.25,1.25,0,0,1-.726.167l-.113-.011a.229.229,0,0,0-.2.368c.1.125.172.225.215.283l.223,3.787a1.667,1.667,0,0,1-.3.721.229.229,0,0,0,.069.447c.26,0,.48-.341.658-1.007a2.8,2.8,0,0,1,3.535.029,1.811,1.811,0,0,1,.615.983.229.229,0,0,0,.458-.005,1.913,1.913,0,0,0-.612-1.157,2.921,2.921,0,0,1,1.9-1.169,3.324,3.324,0,0,1,2.235.672.229.229,0,0,0,.29-.355,3.734,3.734,0,0,0-2.575-.772,3.347,3.347,0,0,0-2.192,1.32,3.255,3.255,0,0,0-3.645-.106l-.2-3.483a.227.227,0,0,0-.033-.106,1.5,1.5,0,0,0,.626-.194l.3.272a.656.656,0,0,0,.916-.066L8,10.743a.664.664,0,0,0,.037-.832L6.792,8.3a.229.229,0,0,0-.277-.069L2.867,9.893a.557.557,0,0,0-.3.3C2.442,10.584.5,17.512.5,18.052v.532a.546.546,0,0,0,.21.433,1.447,1.447,0,0,0,.352.163,2.494,2.494,0,0,1,.448.2c.1.074.208.154.321.238a9.582,9.582,0,0,0,3.428,1.862,11.2,11.2,0,0,0,4.6-.208,6.864,6.864,0,0,0,3.018.709,6.327,6.327,0,0,0,.7-.039.229.229,0,1,0-.051-.455Zm0,0" transform="translate(0 -7.982)" fill="#444"/>
    <path id="Path_129" data-name="Path 129" d="M419.652,385.235a.229.229,0,0,0-.457.025c0,.153.113.671,1.565.913a.244.244,0,0,0,.038,0,.229.229,0,0,0,.037-.455C419.821,385.552,419.666,385.265,419.652,385.235Zm0,0" transform="translate(-407.247 -374.503)" fill="#444"/>
    <path id="Path_130" data-name="Path 130" d="M335.293,2.78h.7v.649a.229.229,0,0,0,.229.229h1.832a.229.229,0,0,0,.229-.229V2.78h.687a.229.229,0,0,0,.18-.371L337.31.082a.237.237,0,0,0-.36,0L335.114,2.41a.229.229,0,0,0,.18.371ZM337.13.593,338.5,2.322h-.444a.229.229,0,0,0-.229.229V3.2h-1.374V2.551a.229.229,0,0,0-.229-.229h-.454Zm0,0" transform="translate(-325.416 0)" fill="#444"/>
    <path id="Path_131" data-name="Path 131" d="M371.239,142.421a.229.229,0,0,0-.229-.229h-1.832a.229.229,0,0,0-.229.229v.687a.229.229,0,0,0,.229.229h1.832a.229.229,0,0,0,.229-.229Zm-.458.458h-1.374v-.229h1.374Zm0,0" transform="translate(-358.374 -138.305)" fill="#444"/>
    <path id="Path_132" data-name="Path 132" d="M371.013,192.434h-1.832a.229.229,0,1,0,0,.458h1.832a.229.229,0,0,0,0-.458Zm0,0" transform="translate(-358.378 -187.173)" fill="#444"/>
    <path id="Path_133" data-name="Path 133" d="M105.746,378.268a3.938,3.938,0,0,1-4.336-1.5.229.229,0,0,0-.392.236,3.928,3.928,0,0,0,1.159,1.133,4.44,4.44,0,0,0,2.463.708,5.734,5.734,0,0,0,1.2-.132.229.229,0,0,0-.1-.448Zm0,0" transform="translate(-97.738 -366.362)" fill="#444"/>
  </g>
</svg>
